<svg width="28" height="32" viewBox="0 0 28 32" fill="none" xmlns="http://www.w3.org/2000/svg">
<g clip-path="url(#clip0_1024_18578)">
<path d="M5.38511 8.19203C4.27356 8.19203 3.3689 7.29532 3.3689 6.19355C3.3689 5.09178 4.27356 4.19507 5.38511 4.19507C6.49666 4.19507 7.40133 5.09178 7.40133 6.19355C7.40133 7.29532 6.49666 8.19203 5.38511 8.19203ZM5.38511 5.06397C4.75658 5.06397 4.24551 5.57054 4.24551 6.19355C4.24551 6.81655 4.75658 7.32312 5.38511 7.32312C6.01365 7.32312 6.52472 6.81655 6.52472 6.19355C6.52472 5.57054 6.01365 5.06397 5.38511 5.06397Z" fill="#0B5BA0"/>
<path d="M11.0865 8.19203C9.97498 8.19203 9.07031 7.29532 9.07031 6.19355C9.07031 5.09178 9.97498 4.19507 11.0865 4.19507C12.1981 4.19507 13.1027 5.09178 13.1027 6.19355C13.1027 7.29532 12.1981 8.19203 11.0865 8.19203ZM11.0865 5.06397C10.458 5.06397 9.94693 5.57054 9.94693 6.19355C9.94693 6.81655 10.458 7.32312 11.0865 7.32312C11.7151 7.32312 12.2261 6.81655 12.2261 6.19355C12.2261 5.57054 11.7151 5.06397 11.0865 5.06397Z" fill="#0B5BA0"/>
<path d="M16.7706 8.19203C15.6591 8.19203 14.7544 7.29532 14.7544 6.19355C14.7544 5.09178 15.6591 4.19507 16.7706 4.19507C17.8822 4.19507 18.7868 5.09178 18.7868 6.19355C18.7868 7.29532 17.883 8.19203 16.7706 8.19203ZM16.7706 5.06397C16.1421 5.06397 15.631 5.57054 15.631 6.19355C15.631 6.81655 16.1421 7.32312 16.7706 7.32312C17.3991 7.32312 17.9102 6.81655 17.9102 6.19355C17.9102 5.57054 17.3991 5.06397 16.7706 5.06397Z" fill="#0B5BA0"/>
<path d="M22.472 8.19203C21.3605 8.19203 20.4558 7.29532 20.4558 6.19355C20.4558 5.09178 21.3605 4.19507 22.472 4.19507C23.5836 4.19507 24.4882 5.09178 24.4882 6.19355C24.4882 7.29532 23.5845 8.19203 22.472 8.19203ZM22.472 5.06397C21.8435 5.06397 21.3324 5.57054 21.3324 6.19355C21.3324 6.81655 21.8435 7.32312 22.472 7.32312C23.1006 7.32312 23.6116 6.81655 23.6116 6.19355C23.6116 5.57054 23.1006 5.06397 22.472 5.06397Z" fill="#0B5BA0"/>
<path d="M2.49401 2.99077L1.28516 1.79255C1.62178 1.61442 2.00573 1.51363 2.41336 1.51363H3.12167C2.99806 1.35462 2.92355 1.15477 2.92355 0.938416C2.92355 0.679483 3.02962 0.444879 3.20056 0.274574C3.37238 0.105137 3.60907 0 3.8703 0H11.4022C11.9246 0 12.3489 0.42055 12.3489 0.938416C12.3489 1.15477 12.2744 1.35462 12.1508 1.51363H16.0395C15.9159 1.35462 15.8414 1.15477 15.8414 0.938416C15.8414 0.679483 15.9474 0.444879 16.1184 0.274574C16.2902 0.105137 16.5269 0 16.7881 0H24.32C24.8425 0 25.2667 0.42055 25.2667 0.938416C25.2667 1.15477 25.1922 1.35462 25.0686 1.51363H25.5876C25.8795 1.51363 26.1591 1.56577 26.4186 1.65961L24.945 2.99077H2.49401Z" fill="#0B5BA0"/>
<path d="M28 3.90488V28.0847C28 28.143 27.9982 28.2012 27.993 28.2585L27.9921 30.8635C27.9921 31.4908 27.4793 32 26.8455 32H25.7252C25.3929 32 25.0914 31.8662 24.874 31.6507C24.6557 31.4344 24.5207 31.1363 24.5207 30.8062C24.5207 30.6897 24.5304 30.5794 24.5496 30.476H3.44335C3.46263 30.5794 3.47228 30.6897 3.47228 30.8062C3.47228 31.1363 3.33728 31.4344 3.119 31.6507C2.90072 31.8662 2.60004 32 2.26781 32H1.14749C0.513697 32 0 31.4908 0 30.8635V27.6051L0.000876616 27.606V3.90488C0.000876616 3.79019 0.00876616 3.6781 0.0254219 3.56775L1.49112 5.02056V28.0847C1.49112 28.5887 1.90489 28.9988 2.41332 28.9988H25.5876C26.096 28.9988 26.5098 28.5887 26.5098 28.0847V4.47749L27.8992 3.22192C27.9649 3.43828 28 3.66767 28 3.90488Z" fill="#0B5BA0"/>
<path d="M21.6288 26.6146H6.37126C4.63381 26.6146 3.2207 25.2139 3.2207 23.4917V13.9825C3.2207 12.2603 4.63381 10.8596 6.37126 10.8596H21.6279C23.3653 10.8596 24.7785 12.2603 24.7785 13.9825V23.4917C24.7793 25.2139 23.3653 26.6146 21.6288 26.6146ZM6.37126 12.163C5.35877 12.163 4.53563 12.9789 4.53563 13.9825V23.4917C4.53563 24.4953 5.35877 25.3112 6.37126 25.3112H21.6279C22.6404 25.3112 23.4635 24.4953 23.4635 23.4917V13.9825C23.4635 12.9789 22.6404 12.163 21.6279 12.163H6.37126Z" fill="#0B5BA0"/>
</g>
<defs>
<clipPath id="clip0_1024_18578">
<rect width="28" height="32" fill="white"/>
</clipPath>
</defs>
</svg>
