<svg width="28" height="33" viewBox="0 0 28 33" fill="none" xmlns="http://www.w3.org/2000/svg">
<g clip-path="url(#clip0_1024_18427)">
<path d="M27.6039 28.3816L27.603 23.847C27.6022 21.2293 27.6013 18.6125 27.6013 15.9948C27.6013 14.2813 27.6022 12.5677 27.6022 10.8533C27.6039 8.1178 27.6047 5.38226 27.603 2.64671C27.6022 1.42298 26.867 0.466578 25.7626 0.132004L23.9675 1.5965C24.2615 1.59566 24.5539 1.594 24.8462 1.59234H24.8548C25.177 1.59234 25.4677 1.70691 25.6746 1.91447C25.8686 2.10957 25.9686 2.37357 25.9566 2.65833C25.937 3.1274 25.943 3.60145 25.9481 4.05973C25.9498 4.22577 25.9524 4.39098 25.9532 4.5562H1.64382C1.64382 4.38849 1.64553 4.22079 1.64639 4.05309C1.64895 3.60145 1.65151 3.13571 1.63955 2.67494C1.631 2.37191 1.73101 2.1079 1.92848 1.91198C2.1362 1.70525 2.43197 1.59151 2.76022 1.59151H2.76364C3.18335 1.59317 3.66975 1.594 4.20572 1.59566L2.28408 0.027397C0.977061 0.200911 0 1.26773 0 2.59773C0 3.08921 0.000854821 3.5807 0.00170964 4.07218C0.00256446 4.56367 0.00341928 5.05598 0.00341928 5.54747C0.00427411 7.88949 0.00341928 10.2323 0.00341928 12.5744L0.000854821 21.71C0.000854821 24.3459 0 26.9827 0.00170964 29.6186C0.00256446 31.0648 1.17538 32.2006 2.67217 32.2047C3.08334 32.2055 3.49536 32.2055 3.90653 32.2055H4.49465L8.51573 32.203C11.4358 32.2014 14.355 32.1989 17.2742 32.1989C18.5624 32.1981 19.8507 32.1997 21.138 32.2014C22.4126 32.203 23.6871 32.2047 24.9616 32.2039C26.4037 32.2039 27.5876 31.059 27.6013 29.6518C27.6056 29.2276 27.6047 28.7975 27.6039 28.3816ZM25.8524 30.0628C25.6446 30.4289 25.3557 30.6007 24.9445 30.6049C24.2265 30.6115 23.4956 30.6099 22.7887 30.609C22.4468 30.6082 22.1048 30.6082 21.7629 30.6082L5.69396 30.6132C4.75366 30.6132 3.8125 30.6107 2.8722 30.6082H2.7833C2.03789 30.6065 1.64382 30.2222 1.64297 29.4966C1.64297 28.6273 1.64297 27.7581 1.64382 26.8889C1.64382 25.832 1.64468 24.7743 1.64382 23.7175C1.64297 22.5643 1.64126 21.4111 1.63869 20.258C1.63613 19.1056 1.63442 17.9525 1.63356 16.8001C1.63271 15.3556 1.63442 13.911 1.63613 12.4656L1.63784 10.7969C1.63869 9.71845 1.64126 8.63917 1.64297 7.5599L1.64553 6.16431H25.9507C25.9507 9.68109 25.9507 13.197 25.9515 16.7138C25.9515 18.0953 25.9515 19.4767 25.9524 20.8582C25.9532 23.6212 25.9541 26.3841 25.9515 29.1462C25.9515 29.2135 25.9532 29.2815 25.9549 29.3496C25.9609 29.6236 25.9669 29.8594 25.8524 30.0628ZM19.301 0.000830211L16.3194 0C13.9601 0 9.01153 0.000830211 5.43923 0.00166042L7.40104 1.59982C11.1853 1.60314 15.5928 1.60148 17.2836 1.60065L18.5197 1.60148C19.2617 1.60231 20.0131 1.60314 20.7687 1.60314L22.7348 0.00166042C21.5894 0.000830211 20.4456 0.000830211 19.301 0.000830211Z" fill="#0B5BA0"/>
<path d="M19.3438 12.4026C17.865 10.9696 15.9074 10.1809 13.8294 10.1809H13.8114C11.6838 10.1859 9.69715 10.992 8.21746 12.4507C6.74888 13.8994 5.94278 15.8255 5.94876 17.8736C5.96073 22.0413 9.48772 25.4319 13.8114 25.4319C13.8123 25.4319 13.8131 25.4319 13.8131 25.4319C18.1368 25.431 21.6544 22.0131 21.6561 17.8114C21.657 15.7691 20.8355 13.8479 19.3438 12.4026ZM19.7439 18.4257C18.4146 18.6889 17.2008 18.8491 15.9656 18.4506C14.5611 17.9973 13.0857 18.009 11.5795 18.483C10.6135 18.7877 9.61424 18.8168 8.52434 18.5718C8.30294 18.522 8.08325 18.4805 7.86869 18.4498C7.55241 15.8089 9.24837 13.1896 11.8342 12.3378C14.9372 11.315 18.1847 12.7903 19.3891 15.7682C19.7259 16.6018 19.843 17.4735 19.7439 18.4257Z" fill="#0B5BA0"/>
<path d="M5.49224 3.07425C5.49224 3.62053 5.03491 4.06553 4.47158 4.06553C3.90826 4.06553 3.45093 3.62053 3.45093 3.07425C3.45093 2.52715 3.90826 2.08215 4.47158 2.08215C4.63827 2.08215 4.79556 2.12117 4.9349 2.19008L4.93575 2.19091C5.07338 2.25899 5.19305 2.35778 5.28623 2.4765L5.28708 2.47733C5.41531 2.64421 5.49224 2.85093 5.49224 3.07425Z" fill="#0B5BA0"/>
<path d="M9.09283 3.07425C9.09283 3.62053 8.6355 4.06553 8.07217 4.06553C7.50884 4.06553 7.05151 3.62053 7.05151 3.07425C7.05151 2.52715 7.50884 2.08215 8.07217 2.08215C8.23886 2.08215 8.39615 2.12117 8.53548 2.19008L8.53634 2.19091C8.67396 2.25899 8.79364 2.35778 8.88682 2.4765L8.88767 2.47733C9.01589 2.64421 9.09283 2.85093 9.09283 3.07425Z" fill="#0B5BA0"/>
<path d="M12.9087 3.07425C12.9087 3.62053 12.4514 4.06553 11.8881 4.06553C11.3248 4.06553 10.8674 3.62053 10.8674 3.07425C10.8674 2.52715 11.3248 2.08215 11.8881 2.08215C12.0548 2.08215 12.2121 2.12117 12.3514 2.19008L12.3523 2.19091C12.4899 2.25899 12.6096 2.35778 12.7027 2.4765L12.7036 2.47733C12.8318 2.64421 12.9087 2.85093 12.9087 3.07425Z" fill="#0B5BA0"/>
<path d="M5.28627 2.47651L4.93579 2.19092C5.07342 2.259 5.19309 2.35779 5.28627 2.47651Z" fill="#0B5BA0"/>
</g>
<defs>
<clipPath id="clip0_1024_18427">
<rect width="27.6047" height="32.2055" fill="white"/>
</clipPath>
</defs>
</svg>
