<svg width="37" height="41" viewBox="0 0 37 41" fill="none" xmlns="http://www.w3.org/2000/svg">
<g clip-path="url(#clip0_503_3674)">
<path d="M14.0669 38.7364L16.4188 32.4589L16.8615 32.7898C17.2479 33.0785 17.7777 33.0041 18.0465 32.6445C18.0686 32.6148 18.0892 32.5835 18.1075 32.5499C18.9507 31.0123 19.1701 29.4984 18.7601 28.0497C18.4832 27.0718 17.914 26.1195 17.0606 25.205L30.2479 7.56003C30.883 6.71024 30.7379 5.48015 29.8886 4.7731C28.9694 4.00788 27.6268 4.14671 26.9486 5.05406L13.7718 22.6851C12.5493 22.0416 11.4024 21.7804 10.2981 21.8891C9.52065 21.966 8.8184 22.2219 8.18209 22.5624C7.54577 22.9029 6.97611 23.3286 6.4646 23.7439C6.048 24.0823 6.07723 24.7299 6.5243 25.0641L6.86088 25.3156L1.58311 29.4516C1.05169 29.8678 0.775144 30.5114 0.837722 31.2009C0.892765 31.8102 1.22877 32.3717 1.73037 32.7466L4.0469 34.4779C4.43582 34.7686 4.89215 34.922 5.34259 34.9303C5.79338 34.9388 6.23828 34.8021 6.6046 34.5121C6.67158 34.4588 6.73089 34.3977 6.78199 34.3293L7.35014 33.5676C7.52455 33.3418 7.3289 33.0085 7.03841 33.0372L6.60847 33.0796L5.46314 33.1909C5.46314 33.1909 5.16484 33.2474 5.03799 33.1526L2.6931 31.4001C2.55644 31.2979 2.53154 31.163 2.52892 31.0914C2.52631 31.0199 2.5413 30.8854 2.67063 30.7836L8.51966 26.2008C8.65779 26.0926 8.85603 26.0934 9.00178 26.2023L14.9508 30.6484C15.0943 30.7557 15.1519 30.9417 15.0911 31.1034L12.4698 38.099C12.4118 38.2547 12.2858 38.3089 12.216 38.328C12.1461 38.3464 12.0082 38.3619 11.8701 38.2587L10.8169 37.4715C10.7126 37.3936 10.6529 37.2718 10.6528 37.1483L10.4141 35.97L10.3356 35.5384C10.2865 35.2706 9.93597 35.1832 9.78176 35.4001L9.14177 36.3012C9.08884 36.3758 9.04941 36.4588 9.02458 36.5474C8.79901 37.3662 9.12102 38.2701 9.82616 38.7971L10.8794 39.5843C11.4163 39.9855 12.0862 40.1192 12.7174 39.9516C13.3485 39.7833 13.8402 39.3406 14.0669 38.7364ZM28.0234 5.85733C28.1334 5.71011 28.535 5.45023 28.9865 5.78761C29.4379 6.125 29.3264 6.60167 29.2164 6.74888L16.1039 24.2937C16.0007 24.2052 15.8945 24.1176 15.7858 24.0304C15.6627 23.9313 15.5356 23.8331 15.4053 23.7352L15.3555 23.698C15.3152 23.6678 15.2746 23.638 15.2343 23.6085C15.13 23.5321 15.026 23.4582 14.9225 23.3868L28.0234 5.85733ZM16.8625 30.7244L16.7782 30.6614C16.6823 30.1439 16.3911 29.6588 15.9415 29.3228L9.9925 24.8767C9.55524 24.5499 9.02957 24.4066 8.52251 24.4468C8.51423 24.3988 8.53228 24.3481 8.57654 24.3192C9.29501 23.8536 9.90302 23.6229 10.5323 23.5609C11.6473 23.4515 12.9007 23.9294 14.3652 25.0239L14.4099 25.0573C17.357 27.2696 17.5336 29.2034 17.0638 30.6666C17.037 30.7494 16.9348 30.7785 16.8625 30.7244Z" fill="#0B5BA0"/>
</g>
<defs>
<clipPath id="clip0_503_3674">
<rect width="15.7068" height="39.267" fill="white" transform="translate(23.5072) rotate(36.7732)"/>
</clipPath>
</defs>
</svg>
