<svg width="45" height="41" viewBox="0 0 45 41" fill="none" xmlns="http://www.w3.org/2000/svg">
<g clip-path="url(#clip0_1024_18495)">
<path d="M40.4083 17.658C40.676 18.3549 40.4674 18.8529 40.4674 18.8529C40.2455 19.5855 39.7466 20.1587 39.1222 20.6082C36.0222 22.8446 32.5891 25.4058 29.4909 27.6444C24.4519 31.285 19.4137 34.9253 14.375 38.5667C12.8168 39.6933 10.8534 39.4445 9.73982 37.9752C8.69971 36.6029 8.95956 34.642 10.3272 33.5315C11.6564 32.4528 13.6256 32.6045 14.7596 33.8726C14.8066 33.9257 14.8527 33.981 14.8997 34.0341C15.1252 34.2911 15.7574 35.3814 16.0387 35.178C17.3788 34.2126 18.7179 33.2448 20.0566 32.2782C26.7125 27.4696 33.7036 22.3392 40.3598 17.5315L40.4083 17.658ZM13.0656 37.9679C14.1408 37.563 14.6852 36.3779 14.2838 35.3168C13.8805 34.2508 12.695 33.7213 11.621 34.1267C10.5611 34.5268 10.0177 35.7096 10.4112 36.7623C10.8104 37.8327 11.9955 38.371 13.0656 37.9679Z" fill="#0B5BA0"/>
<path d="M26.0717 3.41286C21.7912 12.9097 17.525 22.3765 13.2574 31.8447C11.7409 31.9549 12.0618 31.9174 11.166 32.0299C11.2176 31.9029 11.2575 31.7976 11.3035 31.6956C12.9542 28.0311 14.6052 24.3675 16.2571 20.7036C18.4941 15.7413 20.7299 10.7784 22.9657 5.81563C23.6381 4.3236 24.1653 3.10616 25.7066 3.33736C25.8301 3.35553 25.9521 3.3875 26.0717 3.41286Z" fill="#0B5BA0"/>
<path d="M39.6987 16.3887C33.6442 20.7623 27.6225 25.1119 21.5576 29.4932C21.3651 29.1999 21.1456 28.9359 21.0072 28.6342C20.858 28.3092 21.0126 27.9646 21.3434 27.7261C22.6114 26.8092 23.8803 25.8949 25.1485 24.9789C29.4377 21.8795 33.726 18.7804 38.0152 15.681C38.55 15.2942 38.9489 15.3558 39.3384 15.8866C39.4533 16.0446 39.5675 16.2057 39.6987 16.3887Z" fill="#0B5BA0"/>
<path d="M17.3688 25.8433C20.4348 19.0398 24.2198 10.8383 27.2708 4.06798C27.5259 4.17799 27.8068 4.27055 28.0585 4.41411C28.4226 4.62178 28.5148 5.03219 28.3232 5.45734C27.8051 6.6115 27.284 7.76497 26.7644 8.91781C24.4823 13.9818 21.4614 20.4864 19.1801 25.5501C18.8925 26.1884 18.5257 26.3307 17.8778 26.0477C17.7046 25.9746 17.528 25.9075 17.3688 25.8433Z" fill="#0B5BA0"/>
<path d="M12.675 36.8979C13.1494 36.7163 13.3877 36.1873 13.2075 35.7164C13.0272 35.2455 12.4965 35.0109 12.0222 35.1925C11.5479 35.374 11.3095 35.903 11.4898 36.3739C11.67 36.8449 12.2007 37.0794 12.675 36.8979Z" fill="#0B5BA0"/>
</g>
<defs>
<clipPath id="clip0_1024_18495">
<rect width="36.03" height="29.26" fill="white" transform="translate(0 12.8811) rotate(-20.9472)"/>
</clipPath>
</defs>
</svg>
