<svg width="38" height="32" viewBox="0 0 38 32" fill="none" xmlns="http://www.w3.org/2000/svg">
<g clip-path="url(#clip0_1024_18538)">
<path d="M19.0038 0.000717746H7.7614C7.66499 0.000717746 7.61644 0.123452 7.68482 0.195227L9.98978 2.61331C10.0103 2.63485 10.0376 2.64633 10.0664 2.64633H27.3457C27.3744 2.64633 27.4017 2.63413 27.4223 2.61331L29.7265 0.194509C29.7949 0.122735 29.7464 0 29.65 0C25.8202 0.000717746 22.8329 0.000717746 19.0038 0.000717746Z" fill="#0B5BA0"/>
<path d="M38 24.5519C38 24.8792 37.9624 25.1958 37.8338 25.4951C37.6 26.0391 37.2274 26.426 36.6701 26.5896C36.5388 26.6284 36.3993 26.6377 36.2626 26.6535C36.1949 26.6621 36.1244 26.6557 36.0554 26.6557H20.7644C20.705 26.6557 20.6564 26.7059 20.6557 26.7691C20.6557 26.7755 20.6557 26.782 20.6557 26.7884C20.6557 27.565 20.6557 28.3416 20.6564 29.1182C20.6564 29.1635 20.6503 29.2101 20.6571 29.2582C20.6639 29.3092 20.7056 29.3472 20.7542 29.3515C20.759 29.3522 20.7631 29.3522 20.7679 29.3522C20.8301 29.3551 20.893 29.3537 20.9559 29.3537C23.639 29.3537 26.3227 29.3537 29.0058 29.3544C29.1056 29.3544 29.2082 29.353 29.3053 29.3745C29.8325 29.4951 30.1347 29.859 30.2708 30.3901C30.2968 30.4906 30.3084 30.5982 30.3097 30.7023C30.3138 31.0971 30.3118 31.4918 30.3111 31.8873V31.888C30.3111 31.9404 30.2735 31.9856 30.225 31.9943C30.2161 31.9957 30.2072 31.9971 30.1983 31.9978C30.1422 32.0014 30.0855 31.9993 30.0294 31.9993H7.98564C7.92752 31.9993 7.8694 31.9986 7.80581 31.9971C7.74906 31.9964 7.70256 31.9498 7.69846 31.8902C7.69778 31.8773 7.69709 31.8658 7.69709 31.8543V30.7095C7.69709 30.4461 7.76068 30.1999 7.89333 29.9781C8.13744 29.5676 8.48547 29.3522 8.95453 29.3522C11.7634 29.3551 14.5723 29.3537 17.3812 29.3537C17.4359 29.3537 17.4913 29.3573 17.5474 29.353C17.5986 29.3494 17.6403 29.3049 17.6444 29.2518C17.6479 29.208 17.6451 29.1649 17.6451 29.1218C17.6458 28.3381 17.6451 27.5543 17.6458 26.7698C17.6458 26.7066 17.5973 26.6557 17.5378 26.6557C12.0417 26.6557 6.54632 26.6557 1.92684 26.6549C1.78325 26.6549 1.63829 26.6463 1.49675 26.627C1.19658 26.5839 0.933333 26.4475 0.70359 26.2444C0.317949 25.9027 0.0950427 25.4642 0.0266667 24.941C0.00957265 24.8111 0.00273504 24.679 0.00273504 24.5476C0.000683761 17.0623 0.00136752 9.57689 0 2.09223C0 1.72331 0.0594872 1.37018 0.222222 1.04289C0.458803 0.56702 0.809573 0.227526 1.30598 0.0696214C1.44479 0.0251211 1.58632 -0.000717746 1.73197 0.000717746C1.81333 0.00143549 1.8947 0.000717746 1.97675 0.000717746H4.23795C4.26667 0.000717746 4.29402 0.0129194 4.31453 0.0337341L6.6188 2.45182C6.68718 2.5236 6.63863 2.64633 6.54222 2.64633H2.49709C2.44103 2.64633 2.38359 2.64418 2.32752 2.64777C2.32684 2.64777 2.32684 2.64777 2.32615 2.64777C2.26735 2.65135 2.22291 2.7059 2.22222 2.76763C2.20308 4.2749 2.19966 21.9566 2.2188 23.4323C2.21949 23.4918 2.26393 23.5399 2.32 23.5442C2.37812 23.5478 2.43419 23.5442 2.48957 23.5442C10.467 23.545 21.8687 23.545 29.9282 23.545H35.3026C35.3586 23.545 35.4154 23.5464 35.4721 23.5428C35.4742 23.5428 35.4762 23.5428 35.4783 23.5428C35.5337 23.5392 35.5761 23.4897 35.5768 23.4315C35.5973 21.93 35.6103 3.25857 35.5911 2.76117C35.5911 2.75686 35.5904 2.75256 35.5897 2.74753C35.5836 2.69298 35.5405 2.65136 35.4879 2.64705C35.4263 2.64202 35.3668 2.64705 35.308 2.64633H30.8937C30.7973 2.64633 30.7487 2.5236 30.8171 2.45182L33.1214 0.0330163C33.1419 0.0114839 33.1692 0 33.1979 0H36.1429C36.3255 0 36.506 0.0093307 36.6824 0.0638794C37.1385 0.205275 37.4776 0.502422 37.719 0.925175C37.8961 1.23596 37.9897 1.57474 37.9966 1.93863C37.9973 1.99749 37.9973 2.05634 37.9973 2.11592C37.9986 9.59483 37.998 17.073 38 24.5519Z" fill="#0B5BA0"/>
</g>
<defs>
<clipPath id="clip0_1024_18538">
<rect width="38" height="32" fill="white"/>
</clipPath>
</defs>
</svg>
