<svg width="44" height="40" viewBox="0 0 44 40" fill="none" xmlns="http://www.w3.org/2000/svg">
<path d="M10.6309 1.23462C10.4193 1.85954 9.99297 3.07602 9.80566 3.64868L9.71387 3.92993L9.42285 3.98462C6.16657 4.5964 3.64558 7.67422 3.64551 11.429C3.64551 12.4723 3.71948 13.1039 4.04883 13.97L4.15625 14.2493L3.95898 14.4758C3.51422 14.9864 2.55687 16.1111 2.3623 16.3372L1.87109 16.9075L1.53613 16.2346C0.768942 14.6945 0.5 13.2559 0.5 11.429C0.500083 5.63816 4.73671 0.853322 10.1309 0.575439L10.8662 0.537354L10.6309 1.23462Z" fill="#F58220" stroke="#F58220"/>
<path d="M30.4189 1.2395C30.2074 1.86443 29.782 3.08091 29.5947 3.65356L29.5029 3.93481L29.2119 3.9895C25.9555 4.60116 23.4346 7.67894 23.4346 11.4338C23.4346 12.2578 23.4816 12.8156 23.6553 13.428L23.835 14.0647H19.8506L20.0088 13.4417C20.171 12.8031 20.2578 12.13 20.2578 11.4338C20.2578 7.46443 17.8746 4.3702 14.4287 3.97876L14.1201 3.9436L14.0205 3.66919C14.019 3.66567 14.0177 3.6623 14.0166 3.65942C14.0114 3.64613 14.0079 3.63457 14.0059 3.62817C14.0048 3.62469 14.0038 3.62139 14.0029 3.61841C13.9981 3.6049 13.9905 3.58524 13.9814 3.55981C13.9632 3.50868 13.9373 3.43416 13.9053 3.34399C13.8412 3.1638 13.7542 2.91759 13.6611 2.65356C13.4757 2.12779 13.2634 1.52244 13.168 1.22974L12.9453 0.546143L13.6641 0.574463C17.1239 0.713285 20.1229 2.71263 21.8457 5.64185C23.5504 2.74292 26.5056 0.756224 29.9199 0.580322L30.6553 0.542236L30.4189 1.2395ZM14.4678 3.97485C14.4732 3.97502 14.4789 3.97682 14.4844 3.97681C14.4966 3.97677 14.5085 3.97284 14.5205 3.97192C14.5032 3.97325 14.4859 3.97539 14.4678 3.97485ZM14.585 3.96411C14.5904 3.96297 14.5962 3.96347 14.6016 3.96216C14.61 3.96008 14.618 3.95578 14.626 3.95337C14.6129 3.95729 14.5994 3.96107 14.585 3.96411ZM14.2734 3.93091C14.2843 3.9359 14.2966 3.93815 14.3086 3.94263C14.2899 3.93564 14.272 3.92941 14.2559 3.92114C14.2617 3.92412 14.2672 3.92805 14.2734 3.93091ZM14.6836 3.93286C14.6893 3.93034 14.6958 3.92962 14.7012 3.927C14.7052 3.92506 14.7081 3.92117 14.7119 3.91919C14.7032 3.92372 14.6938 3.92835 14.6836 3.93286ZM14.0967 3.79419C14.1094 3.80973 14.1284 3.83119 14.1543 3.85376C14.158 3.857 14.1627 3.86002 14.167 3.86353C14.132 3.83497 14.1067 3.80689 14.0898 3.7854C14.092 3.78815 14.0943 3.79132 14.0967 3.79419ZM14.0664 3.75317C14.0683 3.75601 14.071 3.75867 14.0732 3.76196C14.0675 3.75376 14.0619 3.74651 14.0576 3.7395C14.0602 3.74368 14.0633 3.74846 14.0664 3.75317ZM14.2393 3.04028C14.2348 3.04276 14.2307 3.04561 14.2266 3.0481C14.2337 3.04385 14.2411 3.03958 14.249 3.0354C14.2458 3.03708 14.2422 3.03863 14.2393 3.04028ZM14.2812 3.01978C14.2923 3.01492 14.3042 3.01139 14.3164 3.00708L14.3154 3.00513C14.3031 3.00949 14.292 3.01505 14.2812 3.01978Z" fill="#F58220" stroke="#F58220"/>
<path d="M34.1484 3.72974C34.1474 3.72792 34.1455 3.72551 34.1445 3.72388L34.1455 3.72485C34.1464 3.72644 34.1474 3.72803 34.1484 3.72974ZM34.1484 3.72974C34.1551 3.74108 34.1646 3.7544 34.1758 3.76978C34.1712 3.76341 34.1664 3.7582 34.1631 3.75317C34.1574 3.74454 34.1523 3.73639 34.1484 3.72974ZM33.7598 0.574463C39.206 0.792374 43.5 5.60412 43.5 11.4338C43.5 13.2808 43.2321 14.7068 42.4502 16.259L42.1152 16.9241L41.627 16.3625C41.4681 16.18 40.3174 14.8525 40.0283 14.5227L39.9043 14.3811V14.1106L39.9307 14.0325C40.2045 13.223 40.3545 12.3484 40.3545 11.4338C40.3545 7.46443 37.9712 4.3702 34.5254 3.97876L34.2168 3.9436L34.1172 3.66919C34.1157 3.66567 34.1144 3.6623 34.1133 3.65942C34.1081 3.64613 34.1046 3.63457 34.1025 3.62817C34.1014 3.62469 34.1005 3.62139 34.0996 3.61841C34.0948 3.6049 34.0872 3.58524 34.0781 3.55981C34.0599 3.50868 34.034 3.43416 34.002 3.34399C33.9379 3.1638 33.8509 2.91759 33.7578 2.65356C33.5724 2.12779 33.36 1.52244 33.2646 1.22974L33.042 0.546143L33.7598 0.574463ZM34.5645 3.97485C34.5698 3.97501 34.5756 3.97682 34.5811 3.97681C34.5933 3.97677 34.6052 3.97284 34.6172 3.97192C34.5999 3.97325 34.5825 3.97539 34.5645 3.97485ZM34.6816 3.96411C34.6871 3.96297 34.6929 3.96347 34.6982 3.96216C34.7067 3.96007 34.7146 3.95579 34.7227 3.95337C34.7096 3.95729 34.6961 3.96107 34.6816 3.96411ZM34.3701 3.93091C34.3809 3.9359 34.3933 3.93815 34.4053 3.94263C34.3866 3.93564 34.3687 3.92941 34.3525 3.92114C34.3583 3.92411 34.3639 3.92806 34.3701 3.93091ZM34.7803 3.93286C34.786 3.93035 34.7925 3.92961 34.7979 3.927C34.8019 3.92506 34.8048 3.92117 34.8086 3.91919C34.7998 3.92372 34.7905 3.92835 34.7803 3.93286ZM34.1934 3.79419C34.2061 3.80974 34.2251 3.83119 34.251 3.85376C34.2547 3.85701 34.2594 3.86001 34.2637 3.86353C34.2293 3.83545 34.2044 3.80774 34.1875 3.78638C34.1894 3.78877 34.1913 3.7917 34.1934 3.79419ZM34.2559 3.09595C34.2544 3.09716 34.2533 3.09867 34.252 3.09985C34.255 3.09719 34.2581 3.09405 34.2617 3.09106C34.2598 3.09267 34.2576 3.09451 34.2559 3.09595ZM34.3359 3.04028C34.3315 3.04276 34.3274 3.04561 34.3232 3.0481C34.3304 3.04385 34.3378 3.03958 34.3457 3.0354C34.3426 3.03707 34.3389 3.03865 34.3359 3.04028ZM34.3779 3.01978C34.3889 3.01492 34.4009 3.01139 34.4131 3.00708L34.4121 3.00513C34.3998 3.00949 34.3887 3.01505 34.3779 3.01978Z" fill="#F58220" stroke="#F58220"/>
<path d="M36.7549 18.3937L38.334 20.2413L38.623 20.5802L38.3203 20.9064L22.0557 38.4152L21.6895 38.8087L21.3232 38.4152L5.05859 20.9064L4.75488 20.5802L5.04492 20.2413L6.62305 18.3937L6.9873 17.9659L7.37012 18.3781L21.6895 33.7902L36.0088 18.3781L36.3906 17.9659L36.7549 18.3937Z" fill="#F58220" stroke="#F58220"/>
</svg>
