<svg width="954" height="360" viewBox="0 0 954 360" fill="none" xmlns="http://www.w3.org/2000/svg">
<path d="M264.043 356.523H197.243V339.423C186.123 346.293 175.043 350.963 163.123 353.453C83.4827 370.083 14.9827 321.483 2.06274 249.033C-10.7573 177.173 37.4927 109.633 110.313 97.8832C117.143 96.7832 124.163 96.3832 131.093 96.3532C173.873 96.2232 216.653 96.2832 259.433 96.2832H264.033V356.523H264.043ZM197.153 163.353C172.243 163.353 148.013 163.353 123.783 163.363C123.343 163.363 122.903 163.483 122.463 163.553C85.9027 169.603 62.0627 203.753 69.3227 239.633C76.3827 274.463 112.403 296.963 147.983 288.773C176.423 282.223 196.933 256.653 197.133 227.303C197.243 210.253 197.153 193.193 197.153 176.133V163.353Z" fill="#F58220"/>
<path d="M604.503 261.093C633.513 228.223 661.913 196.043 690.783 163.333C689.233 163.113 688.203 162.833 687.173 162.833C661.083 162.813 634.953 162.093 608.893 163.013C580.373 164.013 558.713 182.523 550.083 205.453C540.813 230.093 548.193 257.583 568.533 275.483C580.093 285.653 593.383 290.963 608.993 290.903C649.893 290.733 690.803 290.843 731.713 290.853H737.313V355.873H732.303C682.163 355.873 632.023 355.633 581.883 355.973C556.123 356.143 534.933 346.593 518.123 327.753C490.163 296.403 475.903 259.333 479.283 217.643C484.883 148.683 536.113 103.153 596.683 97.6132C602.043 97.1232 607.483 97.2732 612.883 97.2732C652.613 97.2532 692.343 97.2632 732.083 97.2632H737.403C737.523 98.9332 737.673 100.073 737.673 101.203C737.713 133.443 737.773 165.693 737.703 197.933C737.703 199.783 737.003 202.003 735.833 203.413C720.553 221.883 705.183 240.273 689.673 258.553C688.463 259.973 686.093 261.163 684.253 261.173C658.743 261.343 633.233 261.293 607.723 261.283C606.983 261.273 606.273 261.193 604.503 261.093Z" fill="#F58220"/>
<path d="M385.183 124.243H446.473V190.163H385.123V273.323V356.313H319.473V351.463C319.473 277.213 319.303 202.953 319.533 128.693C319.683 79.5632 340.633 41.6933 382.093 15.7133C398.273 5.56328 416.303 0.783269 435.333 0.143269C443.983 -0.146731 452.653 0.0932511 461.583 0.0932511V65.6433C456.373 65.6433 451.203 65.4433 446.043 65.6833C434.943 66.2032 424.233 68.1933 414.593 74.3033C396.673 85.6733 386.753 101.833 385.183 124.243Z" fill="#F58220"/>
<path d="M950.373 96.2832V162.543C948.093 162.543 945.793 162.373 943.513 162.573C931.633 163.623 919.343 163.213 907.973 166.203C884.213 172.463 866.773 186.893 859.103 210.743C857.303 216.323 856.783 222.503 856.753 228.413C856.563 269.263 856.653 310.113 856.653 350.963V356.373H790.103C789.983 355.673 789.763 355.003 789.763 354.323C789.773 310.113 788.613 265.873 790.143 221.723C791.843 172.553 817.143 136.753 860.453 113.243C881.973 101.563 905.323 96.3132 929.883 96.2832C936.643 96.2832 943.393 96.2832 950.373 96.2832Z" fill="#F58220"/>
<path fill-rule="evenodd" clip-rule="evenodd" d="M953.133 334.723C953.133 335.413 953.133 336.103 953.133 336.783C953.123 336.853 953.103 336.923 953.093 337.003C953.063 337.473 953.043 337.933 953.003 338.403C952.923 339.293 952.773 340.183 952.583 341.053C951.983 343.873 950.913 346.513 949.343 348.923C947.133 352.323 944.233 354.943 940.623 356.763C937.653 358.263 934.503 359.033 931.183 359.173C929.963 359.223 928.753 359.183 927.543 359.043C926.543 358.923 925.553 358.753 924.573 358.503C920.653 357.513 917.243 355.603 914.353 352.763C911.893 350.353 910.093 347.513 908.893 344.263C908.313 342.673 907.903 341.043 907.663 339.373C907.563 338.673 907.493 337.973 907.453 337.273C907.423 336.593 907.393 335.913 907.413 335.233C907.443 334.493 907.483 333.753 907.563 333.013C907.683 331.993 907.853 330.983 908.113 329.993C909.383 325.003 911.973 320.843 915.973 317.613C919.903 314.433 924.413 312.813 929.443 312.603C930.633 312.553 931.813 312.613 932.993 312.753C933.953 312.873 934.913 313.033 935.853 313.273C940.073 314.333 943.713 316.433 946.733 319.583C949.273 322.223 951.063 325.303 952.123 328.813C952.693 330.673 953.033 332.573 953.093 334.523C953.103 334.603 953.123 334.663 953.133 334.723ZM930.543 317.303C930.543 317.293 930.543 317.293 930.543 317.283C929.973 317.313 929.403 317.333 928.833 317.363C928.053 317.413 927.283 317.523 926.523 317.683C924.363 318.133 922.373 318.983 920.573 320.263C919.143 321.273 917.913 322.483 916.823 323.853C914.363 326.923 912.973 330.413 912.723 334.353C912.663 335.323 912.683 336.293 912.753 337.273C912.823 338.103 912.933 338.943 913.093 339.763C913.403 341.403 913.873 342.983 914.573 344.503C915.703 346.983 917.313 349.073 919.453 350.753C920.963 351.943 922.643 352.843 924.433 353.513C926.163 354.163 927.943 354.583 929.783 354.703C930.833 354.773 931.873 354.733 932.913 354.573C934.203 354.383 935.453 354.053 936.643 353.533C940.333 351.923 943.243 349.403 945.293 345.903C946.463 343.903 947.223 341.743 947.633 339.463C947.793 338.543 947.883 337.613 947.933 336.673C947.973 335.743 947.933 334.823 947.853 333.903C947.783 333.163 947.663 332.433 947.513 331.713C947.063 329.593 946.283 327.593 945.163 325.733C944.003 323.813 942.513 322.183 940.773 320.783C939.303 319.603 937.683 318.683 935.893 318.073C934.533 317.613 933.143 317.353 931.703 317.313C931.313 317.293 930.933 317.303 930.543 317.303Z" fill="#F58220"/>
<path fill-rule="evenodd" clip-rule="evenodd" d="M926.783 339.183C926.783 339.243 926.773 339.303 926.773 339.363C926.763 340.403 926.753 341.453 926.733 342.493C926.713 343.503 926.693 344.503 926.673 345.503C926.653 346.113 926.623 346.713 926.583 347.323C926.553 347.733 926.463 348.133 926.303 348.503C926.023 349.133 925.543 349.503 924.873 349.613C924.183 349.723 923.493 349.653 922.833 349.443C922.163 349.223 921.773 348.743 921.613 348.053C921.513 347.633 921.503 347.203 921.503 346.773C921.493 343.843 921.483 340.903 921.483 337.973C921.483 335.973 921.473 333.973 921.483 331.973C921.483 330.253 921.493 328.523 921.503 326.803C921.503 326.313 921.513 325.813 921.523 325.323C921.533 325.023 921.603 324.733 921.703 324.463C921.943 323.813 922.433 323.433 923.053 323.203C923.463 323.053 923.893 322.973 924.333 322.913C924.903 322.843 925.463 322.763 926.033 322.703C926.423 322.663 926.823 322.623 927.213 322.603C927.863 322.573 928.513 322.543 929.163 322.543C930.743 322.553 932.303 322.723 933.833 323.113C935.043 323.423 936.163 323.903 937.173 324.653C938.273 325.473 939.093 326.513 939.553 327.813C939.853 328.663 939.953 329.543 939.873 330.443C939.743 331.943 939.153 333.263 938.283 334.463C938.113 334.693 937.933 334.913 937.763 335.133C937.573 335.363 937.353 335.553 937.103 335.713C936.813 335.893 936.513 336.073 936.213 336.263C936.163 336.293 936.123 336.333 936.063 336.363C936.103 336.403 936.123 336.443 936.153 336.473C937.393 337.783 938.223 339.323 938.753 341.043C939.023 341.943 939.223 342.863 939.393 343.783C939.593 344.883 939.783 345.993 940.003 347.093C940.093 347.553 940.243 348.003 940.363 348.463C940.373 348.513 940.393 348.563 940.403 348.613C940.383 348.633 940.363 348.653 940.343 348.653C939.653 348.993 938.943 349.323 938.193 349.513C937.783 349.613 937.363 349.683 936.923 349.633C936.473 349.583 936.083 349.403 935.753 349.083C935.483 348.823 935.283 348.513 935.113 348.183C934.823 347.593 934.613 346.973 934.473 346.333C934.303 345.603 934.173 344.873 934.013 344.143C933.823 343.223 933.623 342.303 933.283 341.433C933.133 341.043 932.953 340.673 932.713 340.333C932.223 339.633 931.553 339.243 930.733 339.083C930.203 338.983 929.673 338.963 929.143 338.973C928.433 338.983 927.723 339.063 927.023 339.153C926.923 339.153 926.853 339.163 926.783 339.183ZM926.863 330.753C926.863 331.713 926.863 332.673 926.863 333.643C926.863 333.683 926.863 333.723 926.863 333.753C926.853 333.843 926.893 333.893 926.983 333.903C927.083 333.923 927.193 333.953 927.293 333.983C928.473 334.253 929.663 334.403 930.883 334.253C931.383 334.193 931.863 334.083 932.323 333.883C933.193 333.513 933.783 332.903 934.013 331.963C934.193 331.233 934.213 330.493 934.073 329.753C933.993 329.313 933.853 328.893 933.613 328.513C933.183 327.833 932.563 327.433 931.803 327.213C931.003 326.973 930.183 326.973 929.363 327.063C928.563 327.153 927.793 327.343 927.033 327.603C926.873 327.653 926.873 327.653 926.873 327.833C926.863 328.793 926.863 329.773 926.863 330.753Z" fill="#F58220"/>
</svg>
