<svg width="32" height="29" viewBox="0 0 32 29" fill="none" xmlns="http://www.w3.org/2000/svg">
<g clip-path="url(#clip0_2131_18638)">
<path d="M2.45376 3.728C-0.337406 7.15849 -0.853051 12.0161 1.45378 15.86C1.62497 16.145 1.80868 16.4206 2.00283 16.6837L4.03723 12.5777C3.98921 12.3898 3.95268 12.2009 3.9151 12.0495C3.86917 11.8668 3.83055 11.682 3.79819 11.4962C3.79193 11.4628 3.78149 11.4221 3.77001 11.3845C3.77314 11.4252 3.78045 11.4649 3.79193 11.5014C3.69485 11.1903 3.73348 11.2696 3.77001 11.3845C3.76166 11.3031 3.7627 11.2175 3.75748 11.1433C3.72721 10.731 3.72408 10.3165 3.75226 9.90413C3.75853 9.80809 3.77001 9.71204 3.77627 9.616C3.77627 9.61182 3.77732 9.6066 3.77732 9.60243C3.77627 9.60765 3.77523 9.61391 3.77418 9.61913C3.71782 9.90413 3.8055 9.16396 3.77732 9.60243C3.81802 9.39885 3.84934 9.19528 3.89736 8.99379C3.97982 8.64719 4.0581 8.10955 4.26687 7.81097C4.24286 7.85586 4.19171 7.96965 4.1844 7.99158C4.19275 7.98114 4.21154 7.94355 4.25016 7.86317C4.28983 7.7807 4.32741 7.69718 4.36916 7.6147C4.47041 7.40904 4.58001 7.2086 4.69796 7.01233C4.7919 6.85574 4.89107 6.70227 4.99441 6.55194C4.99754 6.54776 5.01319 6.52375 5.03407 6.49348C5.03407 6.49452 5.03198 6.49557 5.03094 6.49661C5.03407 6.49139 5.0466 6.4726 5.07478 6.43397C5.06747 6.44441 5.06017 6.45589 5.0539 6.46633C5.08313 6.42666 5.13323 6.35776 5.15411 6.33375C5.4349 6.00385 5.72716 5.68962 6.05075 5.40044C6.14469 5.31588 6.24281 5.2334 6.34093 5.15406C6.24594 5.23549 6.55387 5.0006 6.6405 4.94214C7.00375 4.69993 7.38474 4.49636 7.77617 4.30323C7.79705 4.29279 7.82001 4.28026 7.84193 4.26564C7.81375 4.27608 7.78974 4.28861 7.77096 4.30114C8.04861 4.108 7.95362 4.1957 7.84193 4.26564C7.90665 4.23954 7.98598 4.21762 8.03087 4.20196C8.09349 4.17899 8.15717 4.15707 8.22188 4.13515L9.67696 0.0344238C6.70313 0.105414 4.34306 1.40725 2.45376 3.728ZM5.07478 6.43293C5.07895 6.42562 5.08417 6.41936 5.08939 6.411C5.09879 6.39743 5.10714 6.3849 5.11444 6.37551C5.10296 6.39221 5.08939 6.41205 5.07478 6.43293Z" fill="#F58220"/>
<path d="M3.79172 11.5015C3.69465 11.1904 3.73327 11.2697 3.7698 11.3845C3.77293 11.4253 3.78024 11.4649 3.79172 11.5015Z" fill="#F58220"/>
<path d="M3.77734 9.60245C3.77734 9.60245 3.77526 9.61394 3.77421 9.61916C3.71785 9.90416 3.80553 9.16399 3.77734 9.60245Z" fill="#F58220"/>
<path d="M5.03438 6.49347C5.03438 6.49347 5.03229 6.49555 5.03125 6.4966C5.03438 6.49138 5.04691 6.47259 5.07509 6.43396C5.06778 6.4444 5.06048 6.45588 5.05421 6.46632C5.05108 6.4705 5.04899 6.47363 5.04795 6.47467C5.04378 6.47989 5.0396 6.48616 5.03438 6.49242V6.49347Z" fill="#F58220"/>
<path d="M5.11388 6.37549C5.1024 6.39219 5.08883 6.41203 5.07422 6.43291C5.07839 6.4256 5.08361 6.41934 5.08883 6.41098C5.09823 6.39741 5.10658 6.38488 5.11388 6.37549Z" fill="#F58220"/>
<path d="M7.84149 4.26568C7.8133 4.27612 7.7893 4.28865 7.77051 4.30118C8.04816 4.10804 7.95318 4.19574 7.84149 4.26568Z" fill="#F58220"/>
<path d="M11.4454 17.1577C11.4266 17.1577 11.3995 17.1587 11.3682 17.1608C11.4068 17.1535 11.4475 17.1493 11.4663 17.1535C11.459 17.1535 11.4517 17.1556 11.4454 17.1577Z" fill="#F58220"/>
<path d="M20.9493 10.4877V10.5044C20.9493 10.5368 20.9483 10.5692 20.9473 10.6015C20.9055 12.8168 20.1477 14.9497 18.8742 16.6962L16.8503 12.6143C16.9755 12.2239 17.058 11.8272 17.1394 11.4263C17.1394 11.4231 17.1394 11.42 17.1415 11.4169C17.1478 11.325 17.1593 11.2342 17.1666 11.1434C17.1833 10.9241 17.1895 10.7059 17.1916 10.4877C17.1895 10.2205 17.1791 9.95427 17.1551 9.68806C17.1488 9.62438 17.1478 9.57949 17.1478 9.54921C17.1342 9.47613 17.1133 9.40305 17.1008 9.33833C17.011 8.87689 16.8764 8.4332 16.7229 7.99056C16.7073 7.94463 16.6958 7.90809 16.6885 7.88094C16.6645 7.83188 16.6373 7.78177 16.6165 7.73792C16.5173 7.53121 16.4108 7.32868 16.296 7.13033C16.1812 6.93302 16.0591 6.73988 15.9296 6.55197C15.8774 6.47576 15.8284 6.40894 15.8065 6.37867C15.8065 6.37762 15.8054 6.37762 15.8054 6.37658C15.7804 6.34422 15.7532 6.31185 15.7271 6.28053C15.4349 5.93289 15.1155 5.60822 14.772 5.31068C14.7157 5.26162 14.6583 5.2136 14.5998 5.16557C14.5967 5.1614 14.5946 5.16035 14.5915 5.15827C14.5904 5.15827 14.5894 5.15722 14.5883 5.15618C14.5842 5.152 14.58 5.14887 14.5748 5.14574C14.5727 5.14261 14.5695 5.14052 14.5664 5.13843C14.5654 5.13739 14.5633 5.1353 14.5612 5.1353C14.5424 5.12068 14.5236 5.10711 14.509 5.09771C14.319 4.97244 14.1332 4.83985 13.937 4.72293C13.7408 4.60496 13.5403 4.49534 13.3347 4.39303C13.2731 4.36171 13.2011 4.321 13.128 4.2855C13.1061 4.27924 13.0727 4.26671 13.0247 4.25001C12.8963 4.20512 12.769 4.16232 12.6406 4.12056L11.3682 0C12.4871 0.0073078 12.8337 0.195223 13.8932 0.57836C18.0475 2.08272 20.8679 5.95586 20.9473 10.3844C20.9493 10.4188 20.9493 10.4533 20.9493 10.4877Z" fill="#F58220"/>
<path d="M17.323 18.4041C16.0109 19.5671 14.4045 20.4033 12.6102 20.751C12.393 20.7927 12.1749 20.8282 11.9567 20.8564C11.0079 20.9817 10.058 20.9786 9.13112 20.8564C7.07481 20.585 5.13331 19.7258 3.56445 18.3707L5.31702 14.8337C5.54666 15.0947 5.79196 15.3422 6.05082 15.5739C6.11763 15.6345 6.18652 15.695 6.25645 15.7535C6.26898 15.7639 6.42242 15.8777 6.46313 15.9111H6.46417L6.4673 15.9143C6.4673 15.9143 6.46939 15.9153 6.47044 15.9163C6.54559 15.9675 6.6197 16.0197 6.69694 16.0698C7.06228 16.3099 7.44536 16.5083 7.83783 16.7004C7.85349 16.7087 7.86915 16.7171 7.88272 16.7254C7.93387 16.7432 7.98919 16.7578 8.0299 16.7724C8.22613 16.8444 8.4255 16.9081 8.62696 16.9645C8.8305 17.0219 9.03614 17.071 9.24281 17.1138C9.34615 17.1336 9.44844 17.1493 9.55074 17.1681C9.95261 17.1973 10.3493 17.2265 10.7543 17.213C10.8023 17.2109 11.178 17.1733 11.367 17.1608C11.2835 17.1754 11.2125 17.2004 11.4004 17.1649C11.415 17.1618 11.4296 17.1597 11.4442 17.1576C11.4599 17.1566 11.4703 17.1566 11.4745 17.1576C11.4734 17.1555 11.4703 17.1545 11.4672 17.1534C11.5382 17.1399 11.6081 17.1284 11.6791 17.1138C12.0914 17.0303 12.4974 16.9154 12.893 16.7724C12.9233 16.762 12.9776 16.7453 13.0287 16.7306H13.0298C13.0924 16.7035 13.1571 16.667 13.2104 16.6419C13.3753 16.5636 13.5392 16.479 13.6989 16.3893C13.8586 16.3005 14.0151 16.2066 14.1686 16.1074C14.2646 16.0458 14.3575 15.98 14.4525 15.9163C14.4546 15.9143 14.4577 15.9122 14.4619 15.9101C14.4619 15.9049 14.6853 15.7378 14.7187 15.7086C14.7886 15.6501 14.8565 15.5896 14.9233 15.528C15.0746 15.3912 15.2218 15.2482 15.3627 15.1C15.4337 15.0258 15.5036 14.9496 15.5715 14.8724L17.3219 18.4041H17.323Z" fill="#F58220"/>
</g>
<path d="M30.749 26.6926C30.3678 27.129 29.6912 27.1859 29.2372 26.8196L21.3325 20.4435C20.8785 20.0771 20.8193 19.4266 21.2005 18.9902C21.5816 18.5537 22.2583 18.4968 22.7123 18.8632L30.6165 25.2393C31.0705 25.6053 31.1296 26.2562 30.749 26.6926Z" fill="#F58220" stroke="#F58220" stroke-width="2"/>
<defs>
<clipPath id="clip0_2131_18638">
<rect width="20.9494" height="20.9494" fill="white"/>
</clipPath>
</defs>
</svg>
