<svg style="max-height: 500px" fill="none" viewBox="131.76 129.6 818.64 822.96" xmlns="http://www.w3.org/2000/svg" width="818.64" height="822.96">

<path fill="#F58220" d="M628 446.152V804.873H541.209C540.889 797.831 540.543 790.815 540.143 782.657C537.265 783.295 534.6 783.295 532.602 784.437C463.478 823.661 372.663 807.796 319.368 749.652C256.933 681.57 252.776 583.246 312.28 510.487C347.322 467.65 393.395 446.922 448.183 446.311C503.982 445.7 559.809 446.178 615.636 446.178H628V446.152ZM542.515 536.184C510.085 536.184 480.959 536.662 451.833 536.078C421.135 535.44 397.179 547.85 378.153 571.368C349.374 606.977 357.048 668.017 393.102 696.265C414.42 712.98 437.604 718.242 464.144 715.186C498.067 711.279 532.202 683.457 536.173 649.548C540.49 612.717 540.543 575.407 542.515 536.184Z"/>
<path fill="#F58220" d="M891.72 733C882.213 716.882 873.078 702.413 865.191 687.279C863.412 683.875 865.085 677.784 866.705 673.529C905.316 572.433 902.342 472.614 852.153 376.837C796.36 270.342 707.507 208.025 589.257 189.141C581.424 187.891 576.352 185.258 572.607 177.944C565.756 164.512 557.869 151.639 549 136C692.211 144.91 802.973 206.137 879.318 325.957C961.984 455.725 956.912 615.707 891.72 733Z"/>
<path fill="#F58220" d="M183.485 728C120.564 591.147 120.963 458.897 196.977 331.835C269.751 210.173 380.32 147.546 523 136C512.801 153.958 504.089 169.894 494.607 185.324C493.067 187.825 488.207 188.836 484.674 189.395C334.504 214.084 217.88 330.079 192.223 481.271C181.599 543.898 187.336 605.354 209.885 664.815C212.993 672.982 212.276 678.888 207.893 685.885C199.899 698.709 192.701 712.011 183.485 728Z"/>
<path fill="#F58220" d="M823.9 751.12C832.884 766.447 841.282 780.817 850 795.665C830.571 820.412 808.086 841.833 783.422 860.939C613.64 992.577 368.377 964.77 231.526 798.645C225.838 791.753 225.573 787.097 230.383 779.965C237.798 768.975 244.098 757.24 251.327 745C323.407 840.316 417.148 893.482 536.112 894.733C654.677 896.037 749.322 845.319 823.9 751.12Z"/>
<path fill="#F58220" d="M541.213 428.833C535.449 341.471 647.806 250.546 737 269.54V358.858C724.861 360.117 713.227 360.76 701.806 362.635C668.603 368.1 646.291 387.63 635.003 419.429C632.24 427.252 628.92 429.127 621.43 428.993C594.655 428.565 567.881 428.833 541.213 428.833Z"/>
<path fill="#F58220" d="M714 445H646V533H714V445Z"/>
</svg>